<?xml version="1.0" standalone="no"?>
<!DOCTYPE svg PUBLIC "-//W3C//DTD SVG 20010904//EN"
 "http://www.w3.org/TR/2001/REC-SVG-20010904/DTD/svg10.dtd">
<svg version="1.0" xmlns="http://www.w3.org/2000/svg"
 width="270.000000pt" height="270.000000pt" viewBox="0 0 270.000000 270.000000"
 preserveAspectRatio="xMidYMid meet">
<metadata>
Created by potrace 1.14, written by Peter Selinger 2001-2017
</metadata>
<g transform="translate(0.000000,270.000000) scale(0.100000,-0.100000)"
fill="#000000" stroke="none">
<path d="M630 2603 c-218 -56 -338 -248 -297 -478 12 -71 52 -139 115 -196 51
-47 116 -82 337 -184 65 -30 122 -83 127 -118 11 -67 -34 -134 -107 -163 -41
-15 -42 -17 -40 -57 2 -23 3 -45 4 -49 1 -4 11 -7 24 -5 20 2 22 -2 21 -41 -1
-42 -1 -43 50 -67 93 -45 164 -132 191 -235 7 -28 19 -58 25 -66 19 -22 67
-18 81 7 16 30 15 365 -1 384 -20 25 -57 18 -80 -15 l-21 -29 -67 25 c-37 14
-85 29 -107 33 l-40 7 69 22 c204 67 316 228 301 431 -14 178 -112 281 -374
391 -111 46 -178 91 -198 130 -31 62 -1 143 64 174 18 9 33 24 34 33 5 81 6
78 -27 79 -16 1 -54 -5 -84 -13z"/>
<path d="M815 2575 c0 -46 1 -47 50 -70 91 -44 163 -133 190 -235 7 -28 19
-58 25 -66 19 -22 67 -18 81 7 12 24 16 340 5 377 -11 32 -60 30 -82 -3 -20
-31 -42 -31 -118 -1 -34 14 -82 28 -107 31 l-45 6 1 -46z"/>
<path d="M1749 2616 c-2 -2 -24 -7 -49 -10 -117 -16 -270 -126 -333 -240 -63
-113 -89 -220 -90 -366 -2 -219 55 -381 174 -500 56 -57 163 -118 221 -127 17
-2 40 -8 52 -13 20 -8 20 -9 1 -10 -45 -3 -74 -12 -143 -45 -154 -73 -268
-239 -298 -435 -9 -58 -10 -211 -1 -275 23 -175 115 -332 246 -419 51 -34 148
-70 219 -80 l32 -4 0 49 c0 40 -4 50 -22 60 -37 20 -51 38 -57 77 -4 20 -7
233 -6 473 0 400 2 438 18 463 10 15 29 32 43 38 23 11 24 15 24 104 l0 93
-30 16 c-55 28 -54 23 -54 521 -1 426 1 462 17 488 10 15 29 32 43 38 21 10
24 18 24 60 0 33 -4 48 -13 48 -8 0 -16 -2 -18 -4z"/>
<path d="M1850 2570 c0 -44 3 -52 24 -60 14 -5 33 -21 43 -36 16 -26 18 -62
18 -485 0 -497 0 -496 -57 -525 -28 -14 -28 -16 -28 -110 0 -91 1 -95 24 -104
14 -5 33 -21 43 -36 16 -25 18 -63 18 -468 1 -243 -2 -455 -6 -473 -7 -35 -22
-53 -57 -72 -18 -10 -22 -20 -22 -60 l0 -49 33 4 c180 25 315 124 398 289 52
105 72 200 72 350 0 199 -56 356 -169 472 -77 79 -191 137 -279 143 -11 0 14
11 56 23 141 42 245 127 311 253 64 123 84 218 81 389 -6 328 -185 559 -465
599 l-38 6 0 -50z"/>
<path d="M344 1805 c-14 -21 -20 -189 -15 -382 2 -57 44 -80 80 -44 39 39 53
41 117 15 32 -14 77 -28 99 -33 l40 -8 -45 -12 c-192 -55 -304 -214 -294 -418
6 -98 37 -168 110 -241 53 -53 83 -73 191 -123 70 -34 152 -72 181 -86 29 -13
63 -39 76 -56 58 -76 22 -174 -77 -212 -42 -16 -43 -17 -41 -58 1 -23 2 -45 3
-48 0 -4 16 -5 34 -4 160 16 295 98 361 218 44 80 56 137 52 228 -10 179 -110
287 -365 394 -169 71 -221 117 -221 197 0 30 8 47 36 78 20 22 43 40 50 40 18
0 31 34 30 75 -1 26 -5 30 -27 29 -24 -1 -26 2 -24 35 3 51 -2 59 -49 80 -86
38 -168 149 -197 267 -14 58 -31 80 -65 87 -18 3 -29 -2 -40 -18z"/>
<path d="M373 562 c-42 -7 -45 -22 -45 -219 1 -230 -1 -208 18 -227 22 -23 41
-20 69 10 30 33 65 33 135 1 52 -24 139 -41 141 -28 0 3 2 25 4 48 2 40 1 42
-40 58 -88 33 -191 173 -210 285 -7 44 -41 78 -72 72z"/>
</g>
</svg>
